<svg xmlns="http://www.w3.org/2000/svg" xmlns:xlink="http://www.w3.org/1999/xlink" height="62.6" preserveAspectRatio="xMidYMid meet" version="1.0" viewBox="0.0 0.0 62.0 62.6" width="62.0" zoomAndPan="magnify"><g><g><g id="change1_1"><path d="M19,43.557c5.32,0,9.67,4.16,9.98,9.4l-3.98-0.4l-2.72-6.12c-0.39-0.88-1.02-1.6-1.79-2.1 c-0.48-0.31-1.02-0.54-2.28-0.77v-0.03C18.47,43.547,18.73,43.557,19,43.557z" fill="#ffae00"/></g><g id="change1_2"><path d="M22.28,46.437l2.72,6.12l-7.69,3.42c-1.71-1.46-3.08-3.36-3.96-5.55 c-0.23-0.58-0.35-1.19-0.35-1.8v-0.22c0-2.68,2.17-4.85,4.85-4.85c0.12,0,0.24,0,0.36,0.01c1.26,0.23,1.8,0.46,2.28,0.77 C21.26,44.837,21.89,45.557,22.28,46.437z" fill="#ffae00"/></g><g id="change2_1"><path d="M34.51,12.687L34,12.307c0.64-1.23,1-2.62,1-4.07v-0.68l-6,1l-1-5l-6,3l-1-5l-7,4v-3 c-1.89,0.63-3.58,1.68-4.94,3.06c-1.38,1.36-2.43,3.05-3.06,4.94l-0.87,0.35c-1.25,0.5-2.28,1.35-3,2.42 C1.41,14.387,1,15.657,1,17.007c0,1.02,0.24,2.03,0.69,2.94l0.97,1.93c0.4-0.21,0.86-0.32,1.34-0.32h1c0-3.31,2.69-6,6-6h16 c1.01,0,1.97,0.25,2.8,0.69c1.9,1.01,3.2,3.01,3.2,5.31h1c0.52,0,1.01,0.13,1.43,0.36l0.52-0.79c0.69-1.02,1.05-2.23,1.05-3.46 C37,15.707,36.08,13.867,34.51,12.687z" fill="#b27946"/></g><g id="change3_1"><path d="M61,11.557v17c0,0.55-0.45,1-1,1h-3.02c0.01-0.09,0.02-0.18,0.02-0.26c0-0.96-0.78-1.74-1.74-1.74 h-0.97c-0.77,0-1.44,0.5-1.67,1.23l-0.23,0.77H42c-0.55,0-1-0.45-1-1v-17h4h4H61z" fill="#e6e9ed"/></g><g id="change4_1"><path d="M42,5.557h18c0.55,0,1,0.45,1,1v5H49h-4h-4v-5C41,6.007,41.45,5.557,42,5.557z" fill="#6aff00"/></g><g id="change5_1"><path d="M52.44,44.557l-2.06,6.77c-0.23,0.73-0.9,1.23-1.67,1.23h-0.97c-0.96,0-1.74-0.78-1.74-1.74 c0-0.17,0.03-0.34,0.08-0.51l6.31-20.75l0.23-0.77c0.23-0.73,0.9-1.23,1.67-1.23h0.97c0.96,0,1.74,0.78,1.74,1.74 c0,0.08-0.01,0.17-0.02,0.26c-0.02,0.08-0.04,0.16-0.06,0.25l-1.84,6.04v0.01L52.44,44.557z" fill="#ccd1d9"/></g><g id="change6_2"><path d="M61,57.557v3c0,0.55-0.45,1-1,1H50c-0.55,0-1-0.45-1-1v-2c0-0.55,0.45-1,1-1H61z" fill="#aab2bd"/></g><g id="change6_1"><path d="M45,58.557v2c0,0.55-0.45,1-1,1H30c-0.55,0-1-0.45-1-1v-1v-1c0-0.55,0.45-1,1-1h5h9 C44.55,57.557,45,58.007,45,58.557z" fill="#aab2bd"/></g><g id="change7_4"><path d="M35,57.557h-5c-0.55,0-1,0.45-1,1v1h-2.16c-3.58,0-6.94-1.31-9.53-3.58l7.69-3.42l3.98,0.4 l2.04,0.2C33.28,53.387,35,55.287,35,57.557z" fill="#f0d0b4"/></g><g id="change7_2"><path d="M35.43,21.917c0.94,0.51,1.57,1.5,1.57,2.64c0,0.83-0.34,1.58-0.88,2.12 c-0.54,0.54-1.29,0.88-2.12,0.88h-1v-4v-2h1C34.52,21.557,35.01,21.687,35.43,21.917z" fill="#f0d0b4"/></g><g id="change7_1"><path d="M21,23.557c0-1.1,0.9-2,2-2h8c1.1,0,2,0.9,2,2v-2c0-2.3-1.3-4.3-3.2-5.31 c-0.83-0.44-1.79-0.69-2.8-0.69H11c-3.31,0-6,2.69-6,6v2c0-1.1,0.9-2,2-2h8c1.1,0,2,0.9,2,2v2v4c0,1.1-0.9,2-2,2H7 c-1.03,0-1.89-0.79-1.99-1.8c0.1,7.37,5.9,13.37,13.2,13.78c0.26,0.01,0.52,0.02,0.79,0.02c3.86,0,7.36-1.57,9.9-4.1 c2.49-2.49,4.05-5.91,4.09-9.7c-0.1,1.01-0.96,1.8-1.99,1.8h-8c-1.1,0-2-0.9-2-2v-4V23.557z" fill="#f0d0b4"/></g><g id="change7_3"><path d="M5,21.557v2v4H4c-0.83,0-1.58-0.34-2.12-0.88C1.34,26.137,1,25.387,1,24.557 c0-1.18,0.67-2.19,1.66-2.68c0.4-0.21,0.86-0.32,1.34-0.32H5z" fill="#f0d0b4"/></g><g id="change8_1"><path d="M33,27.557v2c0,0.07,0,0.14-0.01,0.2c-0.1,1.01-0.96,1.8-1.99,1.8h-8c-1.1,0-2-0.9-2-2v-4v-2 c0-1.1,0.9-2,2-2h8c1.1,0,2,0.9,2,2V27.557z" fill="#61afef"/></g><g id="change8_2"><path d="M17,25.557v4c0,1.1-0.9,2-2,2H7c-1.03,0-1.89-0.79-1.99-1.8C5,29.697,5,29.627,5,29.557v-2v-4 c0-1.1,0.9-2,2-2h8c1.1,0,2,0.9,2,2V25.557z" fill="#61afef"/></g></g><g id="change9_1"><path d="M24.895,36.004l-1.789-0.895c-0.446,0.893-1.344,1.447-2.342,1.447H16v2h4.764C22.523,38.557,24.106,37.578,24.895,36.004 z" fill="#1a1a1a"/><path d="M9,27.793c0.381-0.763,1.147-1.236,2-1.236s1.619,0.474,2,1.236l0.105,0.211l1.789-0.895l-0.105-0.211 c-0.722-1.444-2.174-2.342-3.789-2.342s-3.067,0.897-3.789,2.342l-0.105,0.211l1.789,0.895L9,27.793z" fill="#1a1a1a"/><path d="M27,24.557c-1.615,0-3.067,0.897-3.789,2.342l-0.105,0.211l1.789,0.895L25,27.793c0.381-0.763,1.147-1.236,2-1.236 s1.619,0.474,2,1.236l0.105,0.211l1.789-0.895l-0.105-0.211C30.067,25.454,28.615,24.557,27,24.557z" fill="#1a1a1a"/><path d="M44,56.557h-8.093c-0.432-2.331-2.345-4.148-4.787-4.394l-1.232-0.123c-0.507-3.669-2.815-6.738-5.985-8.323 C29.77,41.68,34,36.11,34,29.557v-1c2.206,0,4-1.794,4-4c0-1.125-0.47-2.139-1.22-2.866l0.006-0.01 C37.58,20.488,38,19.102,38,17.671c0-2.211-1.037-4.32-2.773-5.682C35.717,10.818,36,9.549,36,8.232V6.376l-6.209,1.035 l-1.067-5.334l-6,3L21.708,0L15,3.833V1.169l-1.316,0.439C9.778,2.909,6.641,5.951,5.208,9.797L4.76,9.976 C1.868,11.132,0,13.892,0,17.006c0,1.169,0.276,2.339,0.799,3.386l0.583,1.165C0.542,22.29,0,23.356,0,24.557c0,2.206,1.794,4,4,4 v1c0,6.621,4.316,12.243,10.278,14.227C12.895,44.854,12,46.525,12,48.405v0.218c0,0.745,0.141,1.476,0.418,2.172 c2.372,5.93,8.031,9.762,14.419,9.762H28c0,1.103,0.897,2,2,2h14c1.103,0,2-0.897,2-2v-2C46,57.454,45.103,56.557,44,56.557z M27.826,51.834l-2.148-0.215l-2.483-5.589c-0.091-0.204-0.201-0.394-0.313-0.584C25.4,46.655,27.275,48.999,27.826,51.834z M31,30.557h-8c-0.552,0-1-0.448-1-1v-6c0-0.552,0.448-1,1-1h8c0.552,0,1,0.448,1,1v6C32,30.108,31.552,30.557,31,30.557z M20,23.557v1h-2v-1c0-1.654-1.346-3-3-3H7c-0.321,0-0.625,0.064-0.915,0.158c0.403-2.355,2.446-4.158,4.915-4.158h16 c2.468,0,4.512,1.802,4.915,4.158c-0.29-0.094-0.594-0.158-0.915-0.158h-8C21.346,20.557,20,21.902,20,23.557z M6,29.557v-6 c0-0.552,0.448-1,1-1h8c0.552,0,1,0.448,1,1v6c0,0.552-0.448,1-1,1H7C6.448,30.557,6,30.108,6,29.557z M34,26.557v-3v-1 c1.103,0,2,0.897,2,2S35.103,26.557,34,26.557z M36,17.671c0,1.035-0.304,2.038-0.878,2.9l-0.091,0.137 C34.7,20.619,34.359,20.557,34,20.557h-0.08c-0.24-1.666-1.066-3.141-2.265-4.213c1.03-0.69,1.906-1.562,2.598-2.564 C35.351,14.764,36,16.184,36,17.671z M13,4.036V7.28l7.292-4.167l0.984,4.923l6-3l0.933,4.666l5.774-0.962 c-0.178,2.72-1.786,5.145-4.212,6.391c-0.851-0.368-1.787-0.575-2.771-0.575H11c-0.365,0-0.721,0.037-1.071,0.091L7.12,10.434 C8.186,7.627,10.305,5.321,13,4.036z M2.588,19.497C2.203,18.728,2,17.866,2,17.006c0-2.292,1.375-4.322,3.502-5.173l0.116-0.047 l2.323,3.484c-2.042,0.998-3.525,2.956-3.861,5.286H4c-0.287,0-0.566,0.033-0.836,0.091L2.588,19.497z M2,24.557 c0-1.103,0.897-2,2-2v1v3C2.897,26.557,2,25.659,2,24.557z M6.343,32.479c0.212,0.048,0.43,0.077,0.657,0.077h8 c1.654,0,3-1.346,3-3v-3h2v3c0,1.654,1.346,3,3,3h8c0.226,0,0.445-0.03,0.657-0.077C30.325,38.243,25.162,42.557,19,42.557 S7.675,38.243,6.343,32.479z M14.275,50.054C14.093,49.595,14,49.113,14,48.623v-0.218c0-2.122,1.727-3.849,3.849-3.849 c1.52,0,2.9,0.897,3.518,2.286l2.314,5.206l-6.201,2.756C16.117,53.497,15.012,51.894,14.275,50.054z M28,58.557h-1.163 c-2.794,0-5.428-0.843-7.62-2.335l5.948-2.643l5.756,0.575c1.408,0.141,2.525,1.115,2.918,2.403H30 C28.897,56.557,28,57.454,28,58.557z M30,60.557v-2h14l0.002,2H30z" fill="#1a1a1a"/><path d="M32.293 40.85L28.586 44.557 32.293 48.264 33.707 46.85 31.414 44.557 33.707 42.264z" fill="#1a1a1a"/><path d="M41.707 48.264L45.414 44.557 41.707 40.85 40.293 42.264 42.586 44.557 40.293 46.85z" fill="#1a1a1a"/><path d="M31.615 43.557H42.385V45.557H31.615z" fill="#1a1a1a" transform="rotate(-68.199 37 44.556)"/><path d="M60,30.557c1.103,0,2-0.897,2-2v-22c0-1.103-0.897-2-2-2H42c-1.103,0-2,0.897-2,2v22c0,1.103,0.897,2,2,2h9.041 l-5.923,19.462C45.04,50.276,45,50.545,45,50.815c0,1.512,1.229,2.741,2.741,2.741h0.969c1.214,0,2.269-0.78,2.623-1.943 l1.843-6.057h3.641l3.106,10.868c0.013,0.044,0.023,0.088,0.032,0.132H50c-1.103,0-2,0.897-2,2v2c0,1.103,0.897,2,2,2h10 c1.103,0,2-0.897,2-2v-3.58c0-0.369-0.052-0.738-0.153-1.099l-5.72-20.017l1.614-5.304H60z M60,60.557H50v-2h10V60.557z M57.885,28.557c-0.326-1.15-1.373-2-2.627-2H54.29c-0.099,0-0.194,0.013-0.29,0.023V12.557h6v16H57.885z M60,6.557v4H50v-2h-2v2 h-2v-2h-2v2h-2v-4H60z M42,28.557v-16h10v15.243c-0.139,0.214-0.255,0.446-0.333,0.701l-0.017,0.057H42z M49.42,51.03 c-0.097,0.315-0.382,0.526-0.71,0.526h-0.969c-0.409,0-0.741-0.332-0.741-0.741c0-0.073,0.011-0.146,0.032-0.216l6.548-21.517 c0.097-0.315,0.382-0.526,0.71-0.526h0.969c0.409,0,0.741,0.332,0.741,0.741c0,0.073-0.011,0.146-0.032,0.216L49.42,51.03z M56.246,43.557h-2.461l1.269-4.17L56.246,43.557z" fill="#1a1a1a"/><path d="M56 14.557H58V16.557000000000002H56z" fill="#1a1a1a"/><path d="M56 18.557H58V20.557H56z" fill="#1a1a1a"/><path d="M44 14.557H50V16.557000000000002H44z" fill="#1a1a1a"/><path d="M44 18.557H50V20.557H44z" fill="#1a1a1a"/><path d="M44 22.557H50V24.557H44z" fill="#1a1a1a"/><path d="M56 22.557H58V24.557H56z" fill="#1a1a1a"/></g></g></svg>